<svg xmlns="http://www.w3.org/2000/svg" viewBox="12 20 214 62">
  <!-- Cd icon: split blade keel + restrained core signal -->
  <path d="M48,86 L7,25 L23,33 C32,42 43,55 48,64 Z" transform="translate(21,18) scale(0.58)" fill="#1a2332"/>
  <path d="M57,86 L93,27 L77,35 C68,46 61,56 57,64 Z" transform="translate(21,18) scale(0.58)" fill="#1a2332"/>
  <line x1="51.45" y1="56.3" x2="51.45" y2="66.7" stroke="#0ea5a0" stroke-width="1.2" stroke-linecap="round"/>
  <!-- Wordmark: Syne 800, tracking -0.5px -->
  <path d="M603 315V371L1180 0H808L318 340L770 640H1126ZM70 640H320V0H70Z" transform="translate(82.00,62) scale(0.038,-0.038)" fill="#1a2332"/>
  <path d="M721 176H957Q948 118 899.5 75.0Q851 32 758.5 8.5Q666 -15 523 -15Q372 -15 262.5 9.0Q153 33 94.0 90.0Q35 147 35 244Q35 340 92.5 397.5Q150 455 259.0 480.0Q368 505 523 505Q675 505 772.0 478.0Q869 451 915.0 390.5Q961 330 959 227H279Q284 201 307.5 179.0Q331 157 380.5 143.5Q430 130 513 130Q599 130 654.5 142.0Q710 154 721 176ZM513 360Q407 360 351.5 337.0Q296 314 286 291H726Q719 317 670.0 338.5Q621 360 513 360Z" transform="translate(127.72,62) scale(0.038,-0.038)" fill="#1a2332"/>
  <path d="M721 176H957Q948 118 899.5 75.0Q851 32 758.5 8.5Q666 -15 523 -15Q372 -15 262.5 9.0Q153 33 94.0 90.0Q35 147 35 244Q35 340 92.5 397.5Q150 455 259.0 480.0Q368 505 523 505Q675 505 772.0 478.0Q869 451 915.0 390.5Q961 330 959 227H279Q284 201 307.5 179.0Q331 157 380.5 143.5Q430 130 513 130Q599 130 654.5 142.0Q710 154 721 176ZM513 360Q407 360 351.5 337.0Q296 314 286 291H726Q719 317 670.0 338.5Q621 360 513 360Z" transform="translate(165.04,62) scale(0.038,-0.038)" fill="#1a2332"/>
  <path d="M60 690H300V0H60Z" transform="translate(202.36,62) scale(0.038,-0.038)" fill="#1a2332"/>
</svg>
